# xmcd
#
# Track frame offsets:
#	182
#	17777
#	28982
#	39327
#	55992
#	68412
#	81835
#	95842
#	109415
#	127912
#
# Disc length: 1951
#
# Revision: 4
# Processed by: cddbd v1.5.1PL0 Copyright (c) Steve Scherf et al.
# Submitted via: audiograbber 1.81.02
# Normalized: r3:DSETVAR2
#
DISCID=82079d0a
DTITLE=Various Artist - Songs of Texas
DYEAR=1996
DGENRE=Country
TTITLE0=Don Edwards - I'd Like To Be In Texas When They Roundup In The Spring
TTITLE1=Sons of the San Joaquin - So Long To The Red River Valley
TTITLE2=Herr Jeffries - Texas To A "T"
TTITLE3=Emmylou Harris - I'll Be Your San Antone Rose
TTITLE4=Rex Allen, Jr. - Texas Plains
TTITLE5=Michael Martin Murphey - The Yellow Rose Of Texas
TTITLE6=Red Steagall - Panhandle Wind
TTITLE7=Emmylou Harris - Amarillo
TTITLE8=Michael Martin Murphey - The Streets Of Laredo
TTITLE9=Don Edwards - Goin' Back To Texas
EXTD=
EXTT0=Don Edwards
EXTT1=Sons Of The San Joaquin
EXTT2=Herb Jeffries
EXTT3=Emmylou Harris
EXTT4=Rex Allen, Sr., Rex Allen, Jr.
EXTT5=Michael Martin Murphey
EXTT6=Red Steagall
EXTT7=Emmylou Harris
EXTT8=Michael Martin Murphey
EXTT9=Don Edwards
PLAYORDER=
